<svg xmlns="http://www.w3.org/2000/svg" width="50" height="30" viewBox="0 0 50 30">
    <g fill="none" fill-rule="nonzero">
        <path fill="#931B1D" d="M15.277.04C7.375.09.977 6.56.977 14.522c0 7.993 6.448 14.48 14.392 14.48 3.727 0 7.125-1.43 9.683-3.773h-.001.002c.525-.48 1.013-1 1.462-1.552h-2.948a14.014 14.014 0 0 1-1.074-1.492h5.085c.31-.497.59-1.014.839-1.55h-6.762a14.135 14.135 0 0 1-.602-1.52h7.966a14.665 14.665 0 0 0 .41-7.694H20.63c.11-.515.246-1.023.41-1.521h7.969a14.55 14.55 0 0 0-.62-1.55h-6.736c.243-.523.518-1.03.825-1.522h5.082a14.384 14.384 0 0 0-1.117-1.55h-2.833c.439-.519.92-1.008 1.443-1.461A14.28 14.28 0 0 0 15.37.04h-.093z"/>
        <path fill="#F16622" d="M49.063 14.526c.002 7.996-6.438 14.48-14.388 14.482-7.946.002-14.39-6.479-14.393-14.476v-.006C20.279 6.527 26.72.043 34.669.04 42.616.038 49.06 6.52 49.063 14.518v.008z"/>
        <path fill="#F7981D" d="M49.063 14.685c.002 7.997-6.438 14.482-14.388 14.483-7.946.003-14.39-6.479-14.393-14.475v-.008C20.279 6.688 26.72.203 34.669.201 42.616.2 49.06 6.681 49.063 14.678v.007z"/>
        <path fill="#CB2026" d="M15.277.205C7.375.256.977 6.723.977 14.685c0 7.994 6.448 14.48 14.392 14.48 3.727 0 7.125-1.43 9.683-3.773l-.001-.001h.002a14.29 14.29 0 0 0 1.462-1.55h-2.948a13.897 13.897 0 0 1-1.074-1.491h5.085c.31-.498.59-1.016.839-1.55h-6.762a14.247 14.247 0 0 1-.602-1.522h7.966a14.66 14.66 0 0 0 .41-7.694H20.63c.11-.514.246-1.023.41-1.52h7.969a14.566 14.566 0 0 0-.62-1.552h-6.736c.243-.52.518-1.03.825-1.52h5.082a14.652 14.652 0 0 0-1.117-1.55h-2.833c.439-.52.92-1.008 1.443-1.463A14.282 14.282 0 0 0 15.37.205h-.093z"/>
        <g fill="#FFF">
            <path d="M20.543 18.372l.193-1.31c-.105 0-.26.044-.395.044-.533 0-.593-.284-.558-.495l.43-2.675h.81l.197-1.45h-.764l.156-.9h-1.533c-.033.033-.905 5.07-.905 5.682 0 .908.506 1.312 1.22 1.306.56-.005.996-.16 1.15-.202zM21.03 15.873c0 2.18 1.428 2.698 2.646 2.698 1.124 0 1.618-.254 1.618-.254l.27-1.487s-.854.38-1.627.38c-1.645 0-1.356-1.234-1.356-1.234h3.114s.2-1 .2-1.407c0-1.015-.503-2.253-2.185-2.253-1.541 0-2.68 1.67-2.68 3.557zm2.687-2.177c.864 0 .704.978.704 1.056h-1.7c-.001-.1.16-1.056.996-1.056zM33.418 18.372l.275-1.683s-.752.382-1.268.382c-1.087 0-1.522-.837-1.522-1.733 0-1.82.935-2.823 1.977-2.823.78 0 1.407.442 1.407.442l.25-1.632s-.93-.38-1.726-.38c-1.769 0-3.49 1.543-3.49 4.445 0 1.921.93 3.193 2.758 3.193.517 0 1.34-.211 1.34-.211zM12.116 12.34c-1.05 0-1.856.339-1.856.339l-.222 1.328s.666-.271 1.67-.271c.57 0 .987.064.987.531 0 .283-.05.388-.05.388s-.45-.038-.659-.038c-1.324 0-2.717.569-2.717 2.285 0 1.351.913 1.662 1.48 1.662 1.08 0 1.545-.705 1.571-.708l-.05.59h1.348l.603-4.248c0-1.8-1.562-1.859-2.105-1.859zm.33 3.456c.028.26-.163 1.475-1.086 1.475-.475 0-.6-.366-.6-.582 0-.422.229-.929 1.352-.929.26 0 .289.029.333.036zM15.655 18.532c.344 0 2.317.089 2.317-1.96 0-1.915-1.826-1.537-1.826-2.307 0-.381.298-.503.842-.503.216 0 1.047.07 1.047.07l.194-1.363s-.538-.12-1.413-.12c-1.135 0-2.284.454-2.284 2.012 0 1.767 1.918 1.588 1.918 2.332 0 .496-.537.537-.95.537-.714 0-1.357-.247-1.36-.235l-.204 1.347c.035.012.433.19 1.719.19zM46.11 11.118l-.33 2.063s-.577-.8-1.48-.8c-1.404 0-2.574 1.702-2.574 3.66 0 1.263.624 2.5 1.9 2.5.919 0 1.426-.644 1.426-.644l-.066.55h1.49l1.171-7.333-1.537.004zm-.711 4.024c0 .814-.402 1.9-1.232 1.9-.552 0-.81-.465-.81-1.196 0-1.194.534-1.985 1.206-1.985.553 0 .836.383.836 1.281zM3.82 18.452l.933-5.535.136 5.535h1.056l1.97-5.535-.873 5.535H8.61l1.21-7.34H7.392l-1.51 4.503-.08-4.502H3.57l-1.226 7.34zM27.427 18.463c.446-2.551.529-4.624 1.594-4.246.186-.987.366-1.369.569-1.787 0 0-.095-.02-.296-.02-.685 0-1.194.943-1.194.943l.136-.866h-1.427l-.955 5.976h1.573zM36.954 12.34a5.27 5.27 0 0 0-1.856.339l-.222 1.328s.664-.271 1.67-.271c.57 0 .987.064.987.531 0 .283-.05.388-.05.388s-.45-.038-.66-.038c-1.326 0-2.716.569-2.716 2.285 0 1.351.913 1.662 1.478 1.662 1.082 0 1.547-.705 1.572-.708l-.05.59h1.35l.601-4.248c0-1.8-1.56-1.859-2.104-1.859zm.329 3.456c.029.26-.161 1.475-1.085 1.475-.476 0-.599-.366-.599-.582 0-.422.228-.929 1.35-.929.262 0 .289.029.334.036zM40.29 18.463c.447-2.551.53-4.624 1.594-4.246.187-.987.366-1.369.57-1.787 0 0-.096-.02-.296-.02-.687 0-1.194.943-1.194.943l.136-.866h-1.427l-.956 5.975h1.574z"/>
        </g>
    </g>
</svg>
