<svg xmlns="http://www.w3.org/2000/svg" width="52" height="17" viewBox="0 0 52 17"><g fill="none"><path d="M18.828 16.094l2.544-15.083h4.118l-2.543 15.083zM37.609 1.401c-.816-.305-2.095-.633-3.692-.633-4.07 0-6.938 2.046-6.962 4.978-.023 2.167 2.046 3.375 3.61 4.097 1.603.738 2.142 1.212 2.134 1.871-.01 1.011-1.28 1.473-2.465 1.473-1.648 0-2.525-.229-3.877-.792l-.531-.24-.579 3.377c.963.42 2.742.786 4.59.805 4.329-.001 7.14-2.022 7.172-5.154.016-1.715-1.082-3.02-3.458-4.098-1.44-.697-2.322-1.162-2.313-1.87 0-.626.747-1.296 2.36-1.296a7.61 7.61 0 0 1 3.083.577l.368.174.56-3.269zm7.022-.39c-.987 0-1.7.303-2.133 1.285l-6.104 13.799h4.36l.848-2.312h5.21l.484 2.312h3.877L47.782 1.012h-3.15zm-1.872 9.754c.34-.868 1.64-4.215 1.64-4.215-.023.04.34-.873.547-1.44l.279 1.3.953 4.356H42.76zm-31.442.585l-.363-2.067c-.752-2.41-3.085-5.019-5.699-6.325l3.639 13.136h4.362l6.541-15.083h-4.36l-4.12 10.34z" fill="#293688"/><path fill="#F7981D" d="M.777 1.011v.244c5.169 1.248 8.757 4.403 10.177 8.028L9.461 2.299c-.25-.955-1.005-1.254-1.9-1.288H.778z"/></g></svg>