<svg xmlns="http://www.w3.org/2000/svg" width="52" height="51" viewBox="0 0 52 51">
    <path fill="#E5EED0" fill-rule="evenodd" d="M0 50.851V25.475c0-6.7 1.808-12.256 5.423-16.668C9.04 4.395 13.998 1.46 20.301 0v11.145c-1.858.531-3.384 1.228-4.578 2.09-1.194.863-2.123 1.89-2.786 3.085-.664 1.194-1.112 2.554-1.344 4.08-.232 1.526-.348 3.218-.348 5.075v2.787H20.3V50.85H0zm31.7 0V25.475c0-6.7 1.807-12.256 5.423-16.668C40.738 4.395 45.697 1.46 52 0v11.145c-1.858.531-3.383 1.228-4.578 2.09-1.194.863-2.123 1.89-2.786 3.085-.663 1.194-1.111 2.554-1.343 4.08-.233 1.526-.349 3.218-.349 5.075v2.787H52V50.85H31.7z"/>
</svg>
