<svg xmlns="http://www.w3.org/2000/svg" width="28" height="27" viewBox="0 0 28 27"><path fill="#79A60B" fill-rule="evenodd" stroke="#79A60B" stroke-width=".7" d="M2.65 25h14.905l1.32 1.625H2.625c-.44 0-.817-.16-1.13-.482A1.583 1.583 0 0 1 1.025 25v-2.438a.84.84 0 0 1 .09-.38c.059-.119.13-.229.215-.33.085-.102.19-.204.317-.305a5.1 5.1 0 0 1 .343-.254c.102-.068.212-.131.33-.19.119-.06.195-.102.229-.127.034-.026.06-.038.076-.038L9.76 17.56c-1.016-.813-1.782-1.934-2.298-3.365-.516-1.43-.774-2.704-.774-3.821V6.312c0-.88.355-1.76 1.066-2.64.71-.88 1.642-1.608 2.793-2.184 1.15-.575 2.306-.863 3.466-.863 1.16 0 2.31.288 3.453.863 1.142.576 2.07 1.304 2.78 2.184.711.88 1.067 1.76 1.067 2.64v4.063c0 1.202-.246 2.501-.737 3.897-.49 1.397-1.244 2.501-2.26 3.314l4.393 2.057-.965 1.37-4.113-1.954a1.645 1.645 0 0 1-.94-1.295 1.683 1.683 0 0 1 .038-.546c.043-.178.11-.347.204-.508.093-.16.215-.3.368-.419.778-.61 1.37-1.506 1.777-2.691.406-1.185.61-2.26.61-3.225V6.312c0-.575-.276-1.176-.826-1.802-.55-.627-1.278-1.16-2.183-1.6-.906-.44-1.799-.66-2.679-.66-.44 0-.893.063-1.358.19a7.45 7.45 0 0 0-1.32.496c-.415.203-.809.44-1.181.71a5.9 5.9 0 0 0-.953.851 4.302 4.302 0 0 0-.634.927c-.161.321-.242.618-.242.888v4.063c0 .931.22 1.997.66 3.2.44 1.201 1.05 2.107 1.829 2.716.457.39.651.88.584 1.473-.068.592-.381 1.015-.94 1.27L3.311 22.41c-.44.203-.66.516-.66.94V25zm24.07-5.992a.741.741 0 0 1 .318.533.76.76 0 0 1-.165.584l-3.885 5.916a.637.637 0 0 1-.152.254.847.847 0 0 1-.584.228.847.847 0 0 1-.584-.228l-2.87-2.87a.72.72 0 0 1-.152-.215 1.145 1.145 0 0 1-.076-.241.641.641 0 0 1 0-.254c.017-.085.043-.165.076-.241a.477.477 0 0 1 .153-.19.803.803 0 0 1 .584-.255c.22 0 .406.085.558.254l2.159 2.158 3.478-5.306c.068-.068.136-.127.203-.178a.558.558 0 0 1 .229-.102c.084-.016.165-.025.241-.025a.84.84 0 0 1 .241.038.54.54 0 0 1 .229.14z"/></svg>