<svg xmlns="http://www.w3.org/2000/svg" width="28" height="25" viewBox="0 0 28 25">
    <path fill="#79A60B" fill-rule="evenodd" stroke="#79A60B" stroke-width=".7" d="M8.338 2.52c-.796 0-1.515.122-2.158.368a5.225 5.225 0 0 0-1.778 1.155C3.234 5.211 2.65 6.624 2.65 8.283c0 .186.009.381.026.584.017.203.046.398.089.584.042.186.089.373.14.559.05.186.114.368.19.546a5.911 5.911 0 0 0 .558 1.015c.11.161.229.322.356.483.127.16.258.309.393.444.593.592 3.631 3.936 9.116 10.03.152.135.33.202.533.202.067 0 .152-.012.254-.038a.599.599 0 0 0 .279-.165c5.992-6.483 9.03-9.758 9.115-9.826 1.168-1.185 1.752-2.598 1.752-4.24 0-1.642-.584-3.047-1.752-4.215-1.15-1.151-2.48-1.726-3.986-1.726-.186 0-.394.025-.622.076-.229.05-.461.13-.698.24-.237.11-.487.242-.75.394-.262.153-.528.33-.8.534-.27.203-.545.423-.824.66-.28.237-.546.49-.8.762l-1.143 1.168-1.168-1.143C11.097 3.417 9.574 2.52 8.338 2.52zm0-1.625c1.676 0 3.58 1.049 5.713 3.148a14.183 14.183 0 0 1 2.83-2.26c.991-.592 1.935-.888 2.832-.888.999 0 1.917.181 2.755.545.838.364 1.629.919 2.374 1.664 1.49 1.472 2.234 3.258 2.234 5.357s-.745 3.893-2.234 5.383c-.068.05-3.098 3.317-9.09 9.8a2.336 2.336 0 0 1-1.714.711 2.253 2.253 0 0 1-1.688-.71l-.864-.94a313.314 313.314 0 0 1-2.12-2.336l-2.539-2.818a759.948 759.948 0 0 0-2.31-2.552 61.044 61.044 0 0 0-1.257-1.358 7.448 7.448 0 0 1-1.663-2.514 7.608 7.608 0 0 1-.572-2.856c0-.957.19-1.909.572-2.857A7.448 7.448 0 0 1 3.26 2.9c.694-.694 1.464-1.201 2.31-1.523.847-.322 1.77-.482 2.768-.482z"/>
</svg>
