<svg xmlns="http://www.w3.org/2000/svg" width="23" height="29" viewBox="0 0 23 29">
    <path fill="#79A60B" fill-rule="evenodd" stroke="#79A60B" stroke-width=".7" d="M11.395 27.661c-3.165 0-5.766-.984-7.805-2.953C1.55 22.739.53 20.234.53 17.193c0-.615.07-1.27.211-1.964.14-.694.299-1.296.475-1.806s.373-1.024.593-1.543c.22-.518.382-.879.488-1.08a5.29 5.29 0 0 1 .264-.462c.175-.334.448-.475.817-.422.176.018.33.084.461.198.132.114.216.25.25.408.335 1.284.74 2.303 1.214 3.06.457.72.949 1.256 1.476 1.607-.51-2.162-.571-4.253-.184-6.275A11.69 11.69 0 0 1 7.743 5.58c.536-1.011 1.076-1.793 1.621-2.347a10.872 10.872 0 0 1 1.78-1.463c.642-.422 1.099-.686 1.371-.791.273-.106.497-.185.672-.238a.977.977 0 0 1 .422-.013c.141.026.273.092.396.198.228.21.307.474.237.79-.017.141-.044.322-.079.541-.035.22-.07.668-.105 1.345-.036.677-.031 1.34.013 1.99.044.651.158 1.407.343 2.268.184.862.443 1.662.777 2.4.088.158.185.338.29.54.106.202.229.418.37.646.07-.65.184-1.239.342-1.766.387-1.389 1.134-2.4 2.242-3.033.087-.052.158-.087.21-.105a.757.757 0 0 1 .436-.08c.149.018.285.076.408.172.123.097.216.22.277.37.062.149.075.303.04.46 0 .054-.005.124-.014.212-.008.088-.004.263.014.527.017.264.057.536.118.818.062.28.176.632.343 1.054.167.422.382.844.646 1.266.598 1.002 1.006 1.911 1.226 2.729.22.817.33 1.859.33 3.124 0 1.196-.176 2.334-.528 3.415a9.502 9.502 0 0 1-1.516 2.9 10.42 10.42 0 0 1-2.346 2.215 10.617 10.617 0 0 1-3.072 1.437 12.811 12.811 0 0 1-3.612.501zM3.168 13.027c-.633 1.582-.95 2.962-.95 4.14 0 2.566.862 4.676 2.585 6.328 1.722 1.652 3.92 2.479 6.592 2.479 2.724 0 4.97-.827 6.736-2.479 1.767-1.652 2.65-3.762 2.65-6.328 0-.738-.04-1.367-.118-1.885a6.763 6.763 0 0 0-.396-1.477 11.79 11.79 0 0 0-.804-1.595c-.615-1.02-1.02-2.04-1.213-3.059a3.706 3.706 0 0 0-.448 1.002c-.14.528-.246 1.13-.317 1.806-.07.677-.1 1.165-.092 1.464.009.299.022.51.04.633 0 .193-.049.369-.145.527a.817.817 0 0 1-.435.343c-.088.017-.176.03-.264.04a.553.553 0 0 1-.264-.04 1.032 1.032 0 0 1-.237-.132.918.918 0 0 1-.185-.185c-1.054-1.494-1.801-2.707-2.24-3.638-1.038-2.25-1.442-4.93-1.214-8.042a8.86 8.86 0 0 0-1.16.843c-.37.317-.765.721-1.186 1.213-.422.493-.796 1.108-1.121 1.846a10.748 10.748 0 0 0-.725 2.4 11.707 11.707 0 0 0-.185 2.122c0 .747.035 1.397.106 1.951.07.554.167 1.09.29 1.609.123.518.215.883.277 1.094.061.21.11.351.145.422.035.07.052.145.052.224 0 .079-.004.154-.013.224a.651.651 0 0 1-.066.21c-.035.071-.079.142-.132.212-.228.246-.5.334-.817.264a2.852 2.852 0 0 1-.33-.093 7.54 7.54 0 0 1-.698-.303 6.993 6.993 0 0 1-.963-.554 7.53 7.53 0 0 1-1.028-.883 7.808 7.808 0 0 1-1.015-1.252 6.61 6.61 0 0 1-.37-.673 12.273 12.273 0 0 1-.342-.778z"/>
</svg>
