<svg xmlns="http://www.w3.org/2000/svg" width="112" height="111" viewBox="0 0 112 111">
    <g fill="none" fill-rule="evenodd">
        <rect width="112" height="111" fill="#79A60B" rx="6"/>
        <g fill="#FFF">
            <path d="M23.384 57.27c.152-.034.301-.088.445-.164 3.47-1.841 7.017-2.726 10.665-2.669 3.577.057 6.534 1.04 8.933 2.946.756.6 1.858.472 2.461-.287a1.751 1.751 0 0 0-.277-2.461c-3.024-2.402-6.728-3.634-11.05-3.702-3.672-.058-7.254.703-10.731 2.275l-.111-.422c-2.039-6.621-2.039-12.186 0-16.696 2.038-4.509 5.324-7.356 9.856-8.541 1.77-3.577 4.749-6.295 8.935-8.155 4.185-1.859 8.349-1.859 12.49 0v72.08c-2.898 1.487-6.032 1.887-9.402 1.2-3.37-.685-5.666-2.533-6.891-5.54-3.79-.133-6.756-1.62-8.897-4.463-2.142-2.843-2.58-6.227-1.313-10.15-3.598-1.594-5.696-4.03-6.296-7.307-.486-2.66-.092-5.308 1.183-7.944zM45.88 34.273c-.356 1.394-1.17 2.435-2.525 3.203-1.486.842-3.016 1.229-4.625 1.175a1.753 1.753 0 0 0-1.813 1.69 1.752 1.752 0 0 0 1.695 1.806c2.265.076 4.436-.473 6.478-1.63 2.173-1.232 3.597-3.053 4.192-5.382a1.755 1.755 0 0 0-3.402-.862zm-10.908 31.83c3.455 1.044 5.486 2.494 6.241 4.254.903 2.105 1.345 4.026 1.343 5.764a1.748 1.748 0 1 0 3.5-.003c.001-2.247-.547-4.632-1.628-7.153-1.23-2.865-4.092-4.908-8.44-6.222a1.752 1.752 0 0 0-2.182 1.174 1.752 1.752 0 0 0 1.166 2.186zM89.783 57.628c1.141 2.517 1.48 5.046 1.016 7.586-.6 3.277-2.698 5.713-6.296 7.306 1.267 3.924.829 7.308-1.313 10.15-1.733 2.301-4.005 3.714-6.817 4.24a1.748 1.748 0 0 0-.734-2.977c-1.68-.448-3.421-1.372-5.22-2.79-1.57-1.234-2.68-3.669-3.226-7.37a1.754 1.754 0 0 0-1.991-1.477 1.75 1.75 0 0 0-1.482 1.985c.664 4.504 2.136 7.729 4.522 9.608 2.004 1.577 4.013 2.68 6.031 3.293-1.23 2.98-3.52 4.81-6.871 5.493-3.37.686-6.504.286-9.402-1.2v-72.08c4.141-1.86 8.305-1.86 12.49 0 4.186 1.859 7.164 4.577 8.935 8.154 4.532 1.185 7.818 4.032 9.856 8.541 2.039 4.51 2.039 10.075 0 16.696l-.195.741c-3.41 3.272-6.564 5.124-9.428 5.604-1.846.309-3.293.497-4.328.565a8.712 8.712 0 0 1-1.117.017 2.085 2.085 0 0 1-.162-.017 1.75 1.75 0 0 0-2.246.735 1.753 1.753 0 0 0 .673 2.386c1.149.647 3.402.499 7.77-.233 3.098-.518 6.268-2.18 9.535-4.956zM70.43 37.308a1.756 1.756 0 0 0-3.389.911c1.13 4.235 2.988 7.212 5.64 8.84 2.644 1.622 5.573 1.993 8.661 1.108a1.749 1.749 0 1 0-.958-3.365c-2.152.617-4.064.375-5.86-.727-1.786-1.097-3.174-3.322-4.094-6.767z"/>
        </g>
    </g>
</svg>
