<svg xmlns="http://www.w3.org/2000/svg" width="112" height="111" viewBox="0 0 112 111"><g fill="none" fill-rule="evenodd"><rect width="112" height="111" fill="#79A60B" rx="6"/><path fill="#FFF" d="M79.484 25.607l-7.433 7.432c-2.144 2.145-4.742 3.285-6.941 3.518-2.2.232-6.73.065-8.695 1.562-3.347 2.55-4.542 6.64-3.384 10.516.758 2.536 2.934 4.397 6.527 5.585 1.188 3.594 3.05 5.77 5.585 6.527 3.877 1.159 7.966-.037 10.516-3.383 1.497-1.966 1.33-6.496 1.563-8.695.232-2.2 1.372-4.797 3.517-6.942l7.308-7.308c10.538 15.02 9.097 35.884-4.323 49.305-13.421 13.42-34.285 14.861-49.305 4.323l7.687-7.686c2.144-2.145 4.742-3.285 6.941-3.518 2.2-.232 6.73-.065 8.695-1.562 3.347-2.55 4.542-6.64 3.383-10.516-.757-2.536-2.933-4.397-6.527-5.585-1.187-3.594-3.049-5.77-5.585-6.527-3.876-1.159-7.965.037-10.515 3.383-1.498 1.966-1.33 6.496-1.563 8.695-.232 2.2-1.373 4.797-3.517 6.942l-7.811 7.81c-11.246-15.076-10.023-36.515 3.67-50.207 13.691-13.692 35.13-14.915 50.207-3.67z"/></g></svg>