<svg xmlns="http://www.w3.org/2000/svg" xmlns:xlink="http://www.w3.org/1999/xlink" width="112" height="111" viewBox="0 0 112 111"><defs><path id="a" d="M32.061 49.256c-6.073-7.08-9.11-14.986-9.11-23.719s3.037-16.639 9.11-23.718c6.073 7.08 9.11 14.985 9.11 23.718s-3.037 16.64-9.11 23.72z"/><path id="b" d="M25.454 60.589c-6.073-7.08-9.11-14.986-9.11-23.72 0-8.732 3.037-16.638 9.11-23.718 6.073 7.08 9.109 14.986 9.109 23.719s-3.036 16.639-9.11 23.719z"/><path id="c" d="M55.78 49.256c-6.073-7.08-9.11-14.986-9.11-23.719S49.708 8.898 55.78 1.82c6.073 7.08 9.11 14.985 9.11 23.718s-3.037 16.64-9.11 23.72z"/><path id="d" d="M65.52 57.453c-.23.422-1.95.994-3.041 1.2-.47.088-.586-1.142-.654-1.23-.427-.554-1.087.932-1.479.367-4.27-6.16-6.404-12.9-6.404-20.223 0-8.733 3.037-16.64 9.11-23.719 6.072 7.08 9.109 14.986 9.109 23.719 0 5.122-2.214 11.75-6.642 19.886z"/><path id="e" d="M43.828 47.438c-6.073-7.08-9.11-14.986-9.11-23.72 0-8.732 3.037-16.639 9.11-23.718 6.073 7.08 9.11 14.986 9.11 23.719s-3.037 16.639-9.11 23.718z"/></defs><g fill="none" fill-rule="evenodd"><rect width="112" height="111" fill="#79A60B" rx="6"/><g transform="rotate(-30 92.176 17.645)"><use fill="#FFF" xlink:href="#a"/><path stroke="#79A60B" stroke-width="3.1" d="M30.885 50.265c-6.31-7.355-9.483-15.618-9.483-24.728 0-9.11 3.173-17.372 9.483-24.728L32.06-.562 33.238.809c6.31 7.356 9.483 15.618 9.483 24.728 0 9.11-3.174 17.373-9.483 24.728l-1.177 1.372-1.176-1.372z"/></g><g transform="rotate(-62 55.586 41.384)"><use fill="#FFF" xlink:href="#b"/><path stroke="#79A60B" stroke-width="3.1" d="M24.277 61.598c-6.31-7.356-9.483-15.618-9.483-24.728 0-9.11 3.173-17.373 9.483-24.728l1.177-1.372 1.176 1.372c6.31 7.355 9.483 15.618 9.483 24.728 0 9.11-3.173 17.372-9.483 24.728l-1.176 1.371-1.177-1.371z"/></g><g transform="scale(-1 1) rotate(-30 48.115 270.603)"><use fill="#FFF" xlink:href="#c"/><path stroke="#79A60B" stroke-width="3.1" d="M54.604 50.265c-6.31-7.355-9.483-15.618-9.483-24.728 0-9.11 3.173-17.372 9.483-24.728L55.78-.562 56.956.809c6.31 7.356 9.483 15.618 9.483 24.728 0 9.11-3.173 17.373-9.483 24.728l-1.176 1.372-1.176-1.372z"/></g><g transform="scale(-1 1) rotate(-62 18.132 165.674)"><use fill="#FFF" xlink:href="#d"/><path stroke="#79A60B" stroke-width="3.1" d="M60.94 59.43c-.696.148-1.42-.111-1.868-.757-4.448-6.417-6.68-13.466-6.68-21.106 0-9.11 3.173-17.372 9.483-24.728l1.176-1.371 1.177 1.371c6.31 7.356 9.483 15.618 9.483 24.728 0 5.429-2.29 12.285-6.83 20.627-.533.979-2.317 1.642-4.115 1.982-.785.148-1.421-.198-1.826-.746z"/></g><g transform="translate(12 29)"><use fill="#FFF" xlink:href="#e"/><path stroke="#79A60B" stroke-width="3.1" d="M42.652 48.447c-6.31-7.356-9.483-15.618-9.483-24.728 0-9.11 3.173-17.373 9.483-24.728l1.176-1.372 1.177 1.372c6.31 7.355 9.482 15.618 9.482 24.728 0 9.11-3.173 17.372-9.482 24.728l-1.177 1.371-1.176-1.371z"/></g></g></svg>