<svg xmlns="http://www.w3.org/2000/svg" width="58" height="79" viewBox="0 0 58 79">
    <g fill="#79A60B" fill-rule="evenodd">
        <path d="M.212 36.341H19.29v19.29H9.646v6.511H34.95v-6.511h-9.486v-19.29h24.773a7 7 0 0 1 6.998 7.16l-.277 12.147a7 7 0 0 1-6.998 6.84H44.74V78.36H.212V36.34zm44.255 6.121v13.825h6.766V42.463h-6.766zM1.144 29.625c2.41-8.17 9.645-14.385 18.233-15.588.044-.006.097-.091.16-.254l-.16-6.338h-6.403V.73h18.941v6.715h-6.503v6.015c.063.387.122.585.179.593 8.536 1.243 15.719 7.438 18.118 15.572H1.144z"/>
    </g>
</svg>
