<svg xmlns="http://www.w3.org/2000/svg" width="71" height="58" viewBox="0 0 71 58"><g fill="#79A60B"><path d="M62.074 20.054C60.278 8.753 50.49.114 38.683.114 28 .114 18.97 7.186 16.017 16.904 6.846 18.99 0 27.193 0 36.996c0 11.38 9.226 20.606 20.607 20.606h29.735c11.38 0 20.607-9.226 20.607-20.606 0-7.022-3.512-13.222-8.875-16.943zM28.51 27.151l-.68 2.653a.615.615 0 0 1-.833.414 6.602 6.602 0 0 0-2.57-.5c-2.567 0-4.1 1.598-4.1 4.276 0 2.675 1.503 4.21 4.123 4.21 1.003 0 2.029-.227 2.557-.438a.615.615 0 0 1 .831.453l.504 2.61a.615.615 0 0 1-.328.666c-.647.323-2.1.7-4.069.7-5.075 0-8.355-3.141-8.355-8.004 0-5.063 3.49-8.465 8.684-8.465 1.859 0 3.245.375 3.923.727a.615.615 0 0 1 .313.698zm8.51 15.067c-4.454 0-7.566-3.346-7.566-8.137 0-4.92 3.21-8.355 7.808-8.355 4.565 0 7.632 3.252 7.632 8.092 0 5.103-3.09 8.4-7.874 8.4zm18.34 3.245a.614.614 0 0 1-.615.614h-7.489a.614.614 0 0 1-.614-.614v-1.495c0-.174.073-.34.202-.456l1.365-1.234c2.187-1.957 3.232-3.06 3.258-4.044 0-.609-.368-.913-1.125-.913-.599 0-1.233.252-1.884.75a.617.617 0 0 1-.945-.262l-.699-1.77a.615.615 0 0 1 .202-.716c1.02-.77 2.417-1.213 3.83-1.213 2.623 0 4.318 1.542 4.318 3.928 0 1.923-1.297 3.437-2.763 4.78h2.344c.34 0 .614.274.614.614v2.03z"/><path d="M37.174 29.608c-2.185 0-2.96 2.374-2.96 4.408 0 2.624 1.17 4.32 2.982 4.32 2.168 0 2.938-2.375 2.938-4.408 0-2.15-.915-4.32-2.96-4.32z"/></g></svg>