<svg xmlns="http://www.w3.org/2000/svg" width="68" height="68" viewBox="0 0 68 68">
    <path fill="#79A60B" fill-rule="evenodd" d="M27.943 67.462c.007-2.256-1.055-13.014-.773-12.96 1.723.332 3.166.498 4.33.498C41.165 55 49 47.165 49 37.5c0-2.823.98-8.328 3.589-15.584.306-.851.913-2.042 1.822-3.57-8.607-2.898-16.666-3.237-24.176-1.018C18.529 20.787 14 27.835 14 37.5c0 4.727 1.697 9.944 4.743 13.093.266.275.768-7.268 3.922-13.093 1.35-2.492 4.597-6.722 7.57-8.78 3.67-2.543 7.466-4.265 11.39-5.167a36.864 36.864 0 0 0-7.801 5.166c-3.644 3.126-6.194 7.177-7.704 9.801-1.097 1.908-2.979 7.365-3.455 16.48-.113 2.152.123 5.85.706 11.094.596.262 1.137.496 1.623.7C10.587 62.847 0 49.66 0 34 0 15.222 15.222 0 34 0s34 15.222 34 34-15.222 34-34 34c-2.067 0-4.091-.184-6.057-.538z"/>
</svg>
