<svg xmlns="http://www.w3.org/2000/svg" width="73" height="81" viewBox="0 0 73 81"><g fill="#79A60B" fill-rule="evenodd"><path d="M36.5 61.228c-9.902 0-17.93-7.926-17.93-17.704 0-4.855 0-10.418 12.212-28.242C32.591 12.642 34.497 7.548 36.5 0c.932 6.223 2.817 11.317 5.655 15.282C53.435 31.039 54.43 38.624 54.43 43.524c0 9.778-8.028 17.704-17.93 17.704zM26.228 47.95c1.547 0 3.05-1.472 3.05-3 0-.506-.45-3.086-.45-5.026s.45-4.43 2.02-8.51c1.35-3.51 2.478-7.82 3.383-12.934-1.234 2.634-2.184 4.517-2.848 5.65-2.628 4.486-5.028 8.127-6.422 11.364-1.215 2.821-1.616 8.496-1.403 9.216.648 2.19 1.661 3.24 2.67 3.24z"/><path d="M20.105 58.452c-2.826 1.554-4.422 3.317-4.422 4.635 0 2.97 9.094 5.379 20.31 5.379 11.217 0 20.31-2.409 20.31-5.38 0-1.436-1.979-3.4-5.384-5.047 4.891 1.395 7.993 3.471 7.993 5.79 0 4.2-10.177 7.604-22.732 7.604S13.447 68.03 13.447 63.83c0-2.1 2.544-4 6.658-5.377z"/><path d="M10.69 57.43c-4.538 2.51-7.1 5.359-7.1 7.488 0 4.8 14.6 11.288 32.61 11.288 18.011 0 32.611-6.489 32.611-11.288 0-2.32-3.178-5.495-8.645-8.154C68.02 59.017 73 62.37 73 66.117 73 72.902 56.658 81 36.5 81S0 72.902 0 66.117c0-3.392 4.085-6.463 10.69-8.687z"/></g></svg>