<svg xmlns="http://www.w3.org/2000/svg" width="10" height="7" viewBox="0 0 10 7"><path fill="#525864" fill-rule="evenodd" stroke="#525864" d="M1.063 1.648c0-.072.026-.135.078-.187a.256.256 0 0 1 .187-.078c.073 0 .136.026.188.078l3.53 3.531 3.477-3.476a.256.256 0 0 1 .188-.079c.073 0 .135.027.187.079a.256.256 0 0 1 .079.187.256.256 0 0 1-.079.188L5.234 5.555a.256.256 0 0 1-.187.078.256.256 0 0 1-.188-.078L1.141 1.844a.182.182 0 0 1-.028-.035.273.273 0 0 1-.02-.04l-.015-.039a.223.223 0 0 1-.016-.082z"/></svg>