<svg xmlns="http://www.w3.org/2000/svg" width="18" height="13" viewBox="0 0 18 13"><path fill="#79A60B" fill-rule="evenodd" stroke="#79A60B" stroke-width="1.5" d="M15.06 1.3a.766.766 0 0 1 .202-.143c.402-.25.775-.201 1.12.143a.876.876 0 0 1 .258.646.876.876 0 0 1-.258.646l-9.159 9.216-.115.115a.833.833 0 0 1-.646.287.833.833 0 0 1-.646-.287L1.251 7.387l-.115-.173a.662.662 0 0 1-.086-.186 1.506 1.506 0 0 1-.043-.201.707.707 0 0 1 0-.201c.01-.067.024-.13.043-.187a1.052 1.052 0 0 1 .201-.344.908.908 0 0 1 .66-.287.9.9 0 0 1 .66.287L6.449 9.97 15.06 1.3z"/></svg>