<svg xmlns="http://www.w3.org/2000/svg" width="76" height="124" viewBox="0 0 76 124">
    <g fill="#79A60B" fill-rule="nonzero">
        <path d="M37.945.038V0l.019.019.019-.019v.038c10.644 10.675 13.115 25.223 7.413 43.646 6.77-11.745 16.948-17.534 30.532-17.368-.985 12.388-10.23 21.143-27.737 26.265 11.206 0 18.97 3.304 23.29 9.913-7.081 4.327-15.132 3.818-24.154-1.527 4.918 3.985 7.062 9.411 6.434 16.279-6.389-.228-11.655-4.986-15.797-14.273-4.143 9.287-9.408 14.045-15.797 14.273-.628-6.868 1.516-12.294 6.433-16.28-9.021 5.346-17.072 5.855-24.153 1.528 4.32-6.609 12.083-9.913 23.29-9.913C10.23 47.459.984 38.704 0 26.316c13.584-.166 23.761 5.623 30.532 17.368C24.83 25.26 27.301 10.713 37.945.038zm.053 60.36c3.832 0 6.939-3.117 6.939-6.96 0-2.563-2.313-6.516-6.94-11.86-4.625 5.344-6.938 9.297-6.938 11.86 0 3.843 3.107 6.96 6.939 6.96zm0-1.065a2.739 2.739 0 0 1-2.746-2.732 2.739 2.739 0 0 1 2.746-2.731 2.739 2.739 0 0 1 2.746 2.731 2.739 2.739 0 0 1-2.746 2.732zM23.869 104.977v14.242H22.62l-.49-.808c-.424.336-.878.599-1.362.788a3.858 3.858 0 0 1-1.402.282c-1.01 0-1.887-.215-2.63-.646a4.365 4.365 0 0 1-1.72-1.818c-.402-.781-.603-1.69-.603-2.727 0-1.024.2-1.923.603-2.697a4.28 4.28 0 0 1 1.74-1.798c.758-.424 1.641-.636 2.65-.636.315 0 .663.057 1.045.171.382.115.75.28 1.105.495v-4.646l2.313-.202zm-7.102 9.292c0 .984.235 1.771.706 2.364.47.593 1.115.889 1.934.889.41 0 .785-.064 1.126-.192a3.6 3.6 0 0 0 1.023-.616v-4.808a3.34 3.34 0 0 0-1.003-.616 3.244 3.244 0 0 0-1.146-.192c-.819 0-1.464.296-1.934.889-.471.592-.706 1.353-.706 2.282zm11.973-1.292v6.242h-2.292v-9.798h1.228l.757 1.616a10.104 10.104 0 0 1 1.69-1.11c.634-.337 1.19-.506 1.667-.506l.471 1.818c-.491 0-1.064.169-1.72.505a8.667 8.667 0 0 0-1.8 1.233zm14.553 1.333c0 1.023-.211 1.926-.634 2.707a4.473 4.473 0 0 1-1.801 1.818c-.778.43-1.686.646-2.723.646s-1.937-.215-2.701-.646a4.458 4.458 0 0 1-1.77-1.808c-.417-.774-.625-1.68-.625-2.717 0-1.024.208-1.923.624-2.697a4.423 4.423 0 0 1 1.791-1.808c.778-.431 1.685-.646 2.722-.646s1.941.212 2.712.636a4.36 4.36 0 0 1 1.781 1.808c.416.781.624 1.683.624 2.707zm-5.158 3.212c.833 0 1.505-.303 2.017-.91.511-.605.767-1.366.767-2.282 0-.956-.249-1.734-.747-2.333-.498-.6-1.163-.9-1.996-.9-.818 0-1.484.304-1.995.91-.512.606-.775 1.374-.788 2.303 0 .956.249 1.73.747 2.323s1.163.889 1.995.889zm11.258-8.363c1.01 0 1.89.212 2.64.636a4.282 4.282 0 0 1 1.73 1.808c.403.781.604 1.697.604 2.747 0 1.01-.205 1.903-.614 2.677a4.409 4.409 0 0 1-1.75 1.808c-.758.43-1.641.646-2.651.646-.6 0-1.235-.175-1.904-.525v4.465l-2.292.222V109.42h1.208l.49.647a4.61 4.61 0 0 1 1.27-.677c.45-.155.873-.232 1.269-.232zm-.041 8.363c.819 0 1.464-.296 1.934-.889.471-.593.706-1.353.706-2.283 0-.97-.232-1.754-.695-2.353-.464-.6-1.113-.9-1.945-.9-.355 0-.686.055-.993.162-.307.108-.61.27-.91.485v5.172a3.17 3.17 0 0 0 1.903.606zm6.202 1.01l.696-1.576c.941.445 1.822.667 2.64.667.519 0 .962-.094 1.33-.283.37-.188.553-.444.553-.768 0-.592-.655-1.097-1.965-1.515-2.183-.7-3.275-1.697-3.275-2.99 0-.902.342-1.612 1.024-2.13.682-.52 1.61-.778 2.784-.778.464 0 1.02.087 1.668.262.648.175 1.19.41 1.627.707l-.716 1.536a9.693 9.693 0 0 0-1.32-.495 4.734 4.734 0 0 0-1.3-.172c-.423 0-.778.1-1.065.303-.286.202-.43.451-.43.747.014.23.178.438.492.627.314.188.75.377 1.31.565 2.251.795 3.377 1.872 3.377 3.232 0 .957-.351 1.697-1.054 2.223-.703.525-1.716.787-3.04.787-.491 0-1.067-.084-1.73-.252-.661-.168-1.197-.4-1.606-.697zM17.071 99.684h-2.216v-5.737H9.216v5.737H7v-13.18l2.216-.097v5.795h5.64v-5.698h2.215v13.18zm11.278-4.768v.64h-6.648c.198 1.68 1.22 2.52 3.067 2.52.514 0 .973-.069 1.375-.204.402-.136.887-.346 1.454-.63l.673 1.589a6.18 6.18 0 0 1-3.542 1.085c-1.74 0-3.07-.442-3.987-1.327-.916-.885-1.375-2.09-1.375-3.615 0-.982.188-1.845.564-2.588a4.123 4.123 0 0 1 1.623-1.734c.705-.414 1.54-.62 2.503-.62 1.411 0 2.48.458 3.205 1.376.725.917 1.088 2.086 1.088 3.508zm-6.608-.814h4.471c-.118-.724-.362-1.273-.732-1.648-.37-.374-.864-.562-1.484-.562-.633 0-1.144.194-1.533.582-.39.387-.63.93-.722 1.628zm9.18-1.454l-.613-1.783c.343-.22.874-.414 1.593-.582.719-.168 1.302-.252 1.75-.252a4.59 4.59 0 0 1 2.029.446c.613.297 1.098.701 1.454 1.212.356.51.534 1.082.534 1.715v6.28h-1.483l-.337-.95c-.37.349-.791.633-1.266.853-.475.22-.95.33-1.425.33-1.108 0-1.949-.272-2.522-.815-.574-.542-.861-1.266-.861-2.17 0-.944.326-1.674.98-2.19.652-.518 1.513-.776 2.581-.776h2.098c-.027-1.305-.607-1.958-1.742-1.958-.87 0-1.793.214-2.77.64zm.792 4.284c0 .336.125.63.376.881.25.252.593.378 1.029.378.409 0 .817-.097 1.226-.29a3.864 3.864 0 0 0 1.108-.795V95.42h-2.156c-.488 0-.874.145-1.158.436a1.48 1.48 0 0 0-.425 1.076zm10.585 2.752h-2.216v-13.47L42.298 86v13.684zm10.863-4.768v.64h-6.648c.198 1.68 1.22 2.52 3.067 2.52.514 0 .973-.069 1.375-.204.402-.136.887-.346 1.454-.63l.673 1.589a6.18 6.18 0 0 1-3.542 1.085c-1.741 0-3.07-.442-3.987-1.327-.917-.885-1.375-2.09-1.375-3.615 0-.982.188-1.845.564-2.588a4.123 4.123 0 0 1 1.622-1.734c.706-.414 1.54-.62 2.503-.62 1.412 0 2.48.458 3.206 1.376.725.917 1.088 2.086 1.088 3.508zm-6.609-.814h4.472c-.119-.724-.363-1.273-.732-1.648-.37-.374-.864-.562-1.484-.562-.633 0-1.144.194-1.533.582-.39.387-.63.93-.723 1.628zm9.181-1.454l-.613-1.783c.343-.22.874-.414 1.593-.582.719-.168 1.302-.252 1.75-.252a4.59 4.59 0 0 1 2.029.446c.613.297 1.098.701 1.454 1.212.356.51.534 1.082.534 1.715v6.28h-1.484l-.336-.95c-.37.349-.792.633-1.266.853-.475.22-.95.33-1.425.33-1.108 0-1.949-.272-2.523-.815-.574-.542-.86-1.266-.86-2.17 0-.944.326-1.674.979-2.19.653-.518 1.514-.776 2.582-.776h2.097c-.026-1.305-.606-1.958-1.74-1.958-.871 0-1.795.214-2.77.64zm.792 4.284c0 .336.125.63.376.881.25.252.593.378 1.028.378.41 0 .818-.097 1.227-.29a3.864 3.864 0 0 0 1.108-.795V95.42h-2.156c-.489 0-.874.145-1.158.436a1.48 1.48 0 0 0-.425 1.076zm8.765-4.904h-1.464V90.36h1.464v-.989c0-1.02.3-1.825.9-2.413.6-.588 1.428-.881 2.483-.881.29 0 .61.048.96.145.35.097.617.216.801.358l-.613 1.629c-.422-.155-.752-.233-.99-.233-.448 0-.778.149-.989.446-.21.297-.316.704-.316 1.22v.718h1.78l.713 1.667h-2.493v7.656H65.29v-7.656z"/>
    </g>
</svg>
