<svg xmlns="http://www.w3.org/2000/svg" width="39" height="39" viewBox="0 0 39 39"><g fill="none"><path fill="#8BC34A" d="M39 17.447V19.5C39 30.253 30.253 39 19.5 39h-2.053v-4.105H19.5c8.489 0 15.395-6.906 15.395-15.395 0-8.49-6.906-15.395-15.395-15.395-3.198 0-6.165.986-8.626 2.664l2.468 2.468-11.29 3.079 3.08-11.29 2.804 2.805A19.345 19.345 0 0 1 19.5 0c10.059 0 18.36 7.656 19.39 17.447H39zM10.753 36.92c.914.46 1.869.854 2.857 1.167l1.24-3.914a15.36 15.36 0 0 1-2.255-.92l-1.842 3.667zm-2.976-7.493L4.624 32.08a19.83 19.83 0 0 0 2.19 2.204l2.67-3.114a15.661 15.661 0 0 1-1.707-1.744zM.952 25.484c.329 1.011.733 1.99 1.216 2.92l3.666-1.872a15.576 15.576 0 0 1-.967-2.31L.952 25.483zm3.205-6.998l-4.091-.265C.036 18.646 0 19.07 0 19.5c0 .554.032 1.102.078 1.646l4.089-.35a15.417 15.417 0 0 1-.062-1.296c0-.345.029-.677.052-1.014z"/><path fill="#2E7D32" d="M20.255 18.124s-2.619-.783-2.619-2.578c0-2.095 1.772-2.077 2.146-2.077.69 0 2.271.374 2.271 2.953h3.605c0-5.003-3.913-5.453-5.132-5.634V8.21h-2.052v2.606c-1.335.231-4.445 1.145-4.445 4.717 0 3.816 3.792 4.863 4.106 4.994 2.198.918 3.917 1.195 3.917 3.163 0 1.987-1.98 2.04-2.37 2.04-.342 0-2.732.087-2.732-3.152h-3.608c0 5.06 3.974 5.707 5.132 5.836v2.374h2.052v-2.362c.748-.07 5.132-.61 5.132-4.762 0-3.994-4.595-5.233-5.403-5.541z"/></g></svg>