<svg xmlns="http://www.w3.org/2000/svg" width="84" height="84" viewBox="0 0 84 84">
    <g fill="#EC7505" fill-rule="nonzero">
        <path d="M42 5C21.565 5 5 21.565 5 42s16.565 37 37 37 37-16.565 37-37S62.435 5 42 5zm0-5c23.196 0 42 18.804 42 42S65.196 84 42 84 0 65.196 0 42 18.804 0 42 0z"/>
        <path d="M55.053 30.894L36.675 49.172l-6.428-6.477a3.061 3.061 0 0 0-4.343 0 3.061 3.061 0 0 0 0 4.343l8.586 8.637a3.058 3.058 0 0 0 4.344 0l20.562-20.437a3.061 3.061 0 0 0 0-4.344 3.084 3.084 0 0 0-4.343 0z"/>
    </g>
</svg>
